<svg width="276" height="136" viewBox="0 0 276 136" fill="none" xmlns="http://www.w3.org/2000/svg">
<g filter="url(#filter0_d_205_52)">
<g filter="url(#filter1_d_205_52)">
<path d="M45.5481 32.3801C45.8411 30.9928 47.0654 30 48.4833 30H242.294C244.203 30 245.626 31.7581 245.229 33.6245L230.33 103.625C230.036 105.01 228.812 106 227.396 106H33.6998C31.7935 106 30.3706 104.245 30.7645 102.38L45.5481 32.3801Z" fill="#D379F9"/>
<path d="M46.5265 32.5867C46.7218 31.6618 47.5381 31 48.4833 31H242.294C243.566 31 244.515 32.1721 244.251 33.4163L229.352 103.416C229.156 104.34 228.34 105 227.396 105H33.6998C32.4289 105 31.4803 103.83 31.7429 102.587L46.5265 32.5867Z" stroke="#D379F9" stroke-width="2"/>
</g>
<path d="M107.584 59.2V76H104.512V61.84H95.7996V76H92.7276V59.2H107.584ZM119.089 63.04C120.337 63.04 121.449 63.312 122.425 63.856C123.417 64.4 124.193 65.168 124.753 66.16C125.313 67.152 125.593 68.296 125.593 69.592C125.593 70.888 125.313 72.04 124.753 73.048C124.193 74.04 123.417 74.808 122.425 75.352C121.449 75.896 120.337 76.168 119.089 76.168C117.361 76.168 115.993 75.592 114.985 74.44V80.656H111.985V63.184H114.841V64.864C115.337 64.256 115.945 63.8 116.665 63.496C117.401 63.192 118.209 63.04 119.089 63.04ZM118.753 73.6C119.857 73.6 120.761 73.232 121.465 72.496C122.185 71.76 122.545 70.792 122.545 69.592C122.545 68.392 122.185 67.424 121.465 66.688C120.761 65.952 119.857 65.584 118.753 65.584C118.033 65.584 117.385 65.752 116.809 66.088C116.233 66.408 115.777 66.872 115.441 67.48C115.105 68.088 114.937 68.792 114.937 69.592C114.937 70.392 115.105 71.096 115.441 71.704C115.777 72.312 116.233 72.784 116.809 73.12C117.385 73.44 118.033 73.6 118.753 73.6ZM134.291 76.168C132.995 76.168 131.827 75.888 130.787 75.328C129.747 74.768 128.931 73.992 128.339 73C127.763 71.992 127.475 70.856 127.475 69.592C127.475 68.328 127.763 67.2 128.339 66.208C128.931 65.216 129.747 64.44 130.787 63.88C131.827 63.32 132.995 63.04 134.291 63.04C135.603 63.04 136.779 63.32 137.819 63.88C138.859 64.44 139.667 65.216 140.243 66.208C140.835 67.2 141.131 68.328 141.131 69.592C141.131 70.856 140.835 71.992 140.243 73C139.667 73.992 138.859 74.768 137.819 75.328C136.779 75.888 135.603 76.168 134.291 76.168ZM134.291 73.6C135.395 73.6 136.307 73.232 137.027 72.496C137.747 71.76 138.107 70.792 138.107 69.592C138.107 68.392 137.747 67.424 137.027 66.688C136.307 65.952 135.395 65.584 134.291 65.584C133.187 65.584 132.275 65.952 131.555 66.688C130.851 67.424 130.499 68.392 130.499 69.592C130.499 70.792 130.851 71.76 131.555 72.496C132.275 73.232 133.187 73.6 134.291 73.6ZM153.777 65.728H149.289V76H146.289V65.728H141.777V63.184H153.777V65.728ZM155.954 63.184H158.954V71.632L166.034 63.184H168.77V76H165.77V67.552L158.714 76H155.954V63.184ZM182.093 69.328C183.677 69.808 184.469 70.832 184.469 72.4C184.469 73.552 184.037 74.44 183.173 75.064C182.309 75.688 181.029 76 179.333 76H172.805V63.184H179.069C180.637 63.184 181.861 63.472 182.741 64.048C183.621 64.624 184.061 65.44 184.061 66.496C184.061 67.152 183.885 67.72 183.533 68.2C183.197 68.68 182.717 69.056 182.093 69.328ZM175.661 68.536H178.805C180.357 68.536 181.133 68 181.133 66.928C181.133 65.888 180.357 65.368 178.805 65.368H175.661V68.536ZM179.093 73.816C180.741 73.816 181.565 73.28 181.565 72.208C181.565 71.648 181.373 71.232 180.989 70.96C180.605 70.672 180.005 70.528 179.189 70.528H175.661V73.816H179.093Z" fill="#4537B7"/>
</g>
<defs>
<filter id="filter0_d_205_52" x="25.6987" y="25" width="224.597" height="86" filterUnits="userSpaceOnUse" color-interpolation-filters="sRGB">
<feFlood flood-opacity="0" result="BackgroundImageFix"/>
<feColorMatrix in="SourceAlpha" type="matrix" values="0 0 0 0 0 0 0 0 0 0 0 0 0 0 0 0 0 0 127 0" result="hardAlpha"/>
<feOffset/>
<feGaussianBlur stdDeviation="2.5"/>
<feColorMatrix type="matrix" values="0 0 0 0 0.67451 0 0 0 0 0.313726 0 0 0 0 0.823529 0 0 0 1 0"/>
<feBlend mode="normal" in2="BackgroundImageFix" result="effect1_dropShadow_205_52"/>
<feBlend mode="normal" in="SourceGraphic" in2="effect1_dropShadow_205_52" result="shape"/>
</filter>
<filter id="filter1_d_205_52" x="0.69873" y="0" width="274.597" height="136" filterUnits="userSpaceOnUse" color-interpolation-filters="sRGB">
<feFlood flood-opacity="0" result="BackgroundImageFix"/>
<feColorMatrix in="SourceAlpha" type="matrix" values="0 0 0 0 0 0 0 0 0 0 0 0 0 0 0 0 0 0 127 0" result="hardAlpha"/>
<feOffset/>
<feGaussianBlur stdDeviation="15"/>
<feColorMatrix type="matrix" values="0 0 0 0 0.913725 0 0 0 0 0.721569 0 0 0 0 0.32549 0 0 0 0.8 0"/>
<feBlend mode="normal" in2="BackgroundImageFix" result="effect1_dropShadow_205_52"/>
<feBlend mode="normal" in="SourceGraphic" in2="effect1_dropShadow_205_52" result="shape"/>
</filter>
</defs>
</svg>
