<svg width="256" height="116" viewBox="0 0 256 116" fill="none" xmlns="http://www.w3.org/2000/svg">
<g filter="url(#filter0_d_189_285)">
<g filter="url(#filter1_d_189_285)">
<path d="M36.5265 22.5867C36.7218 21.6618 37.5381 21 38.4833 21H232.294C233.566 21 234.515 22.1721 234.251 23.4163L219.352 93.4163C219.156 94.3398 218.34 95 217.396 95H23.6998C22.4289 95 21.4803 93.8302 21.7429 92.5867L36.5265 22.5867Z" stroke="#D379F9" stroke-width="2"/>
</g>
<g filter="url(#filter2_d_189_285)">
<path d="M97.5836 49.2V66H94.5116V51.84H85.7996V66H82.7276V49.2H97.5836ZM109.089 53.04C110.337 53.04 111.449 53.312 112.425 53.856C113.417 54.4 114.193 55.168 114.753 56.16C115.313 57.152 115.593 58.296 115.593 59.592C115.593 60.888 115.313 62.04 114.753 63.048C114.193 64.04 113.417 64.808 112.425 65.352C111.449 65.896 110.337 66.168 109.089 66.168C107.361 66.168 105.993 65.592 104.985 64.44V70.656H101.985V53.184H104.841V54.864C105.337 54.256 105.945 53.8 106.665 53.496C107.401 53.192 108.209 53.04 109.089 53.04ZM108.753 63.6C109.857 63.6 110.761 63.232 111.465 62.496C112.185 61.76 112.545 60.792 112.545 59.592C112.545 58.392 112.185 57.424 111.465 56.688C110.761 55.952 109.857 55.584 108.753 55.584C108.033 55.584 107.385 55.752 106.809 56.088C106.233 56.408 105.777 56.872 105.441 57.48C105.105 58.088 104.937 58.792 104.937 59.592C104.937 60.392 105.105 61.096 105.441 61.704C105.777 62.312 106.233 62.784 106.809 63.12C107.385 63.44 108.033 63.6 108.753 63.6ZM124.291 66.168C122.995 66.168 121.827 65.888 120.787 65.328C119.747 64.768 118.931 63.992 118.339 63C117.763 61.992 117.475 60.856 117.475 59.592C117.475 58.328 117.763 57.2 118.339 56.208C118.931 55.216 119.747 54.44 120.787 53.88C121.827 53.32 122.995 53.04 124.291 53.04C125.603 53.04 126.779 53.32 127.819 53.88C128.859 54.44 129.667 55.216 130.243 56.208C130.835 57.2 131.131 58.328 131.131 59.592C131.131 60.856 130.835 61.992 130.243 63C129.667 63.992 128.859 64.768 127.819 65.328C126.779 65.888 125.603 66.168 124.291 66.168ZM124.291 63.6C125.395 63.6 126.307 63.232 127.027 62.496C127.747 61.76 128.107 60.792 128.107 59.592C128.107 58.392 127.747 57.424 127.027 56.688C126.307 55.952 125.395 55.584 124.291 55.584C123.187 55.584 122.275 55.952 121.555 56.688C120.851 57.424 120.499 58.392 120.499 59.592C120.499 60.792 120.851 61.76 121.555 62.496C122.275 63.232 123.187 63.6 124.291 63.6ZM143.777 55.728H139.289V66H136.289V55.728H131.777V53.184H143.777V55.728ZM145.954 53.184H148.954V61.632L156.034 53.184H158.77V66H155.77V57.552L148.714 66H145.954V53.184ZM172.093 59.328C173.677 59.808 174.469 60.832 174.469 62.4C174.469 63.552 174.037 64.44 173.173 65.064C172.309 65.688 171.029 66 169.333 66H162.805V53.184H169.069C170.637 53.184 171.861 53.472 172.741 54.048C173.621 54.624 174.061 55.44 174.061 56.496C174.061 57.152 173.885 57.72 173.533 58.2C173.197 58.68 172.717 59.056 172.093 59.328ZM165.661 58.536H168.805C170.357 58.536 171.133 58 171.133 56.928C171.133 55.888 170.357 55.368 168.805 55.368H165.661V58.536ZM169.093 63.816C170.741 63.816 171.565 63.28 171.565 62.208C171.565 61.648 171.373 61.232 170.989 60.96C170.605 60.672 170.005 60.528 169.189 60.528H165.661V63.816H169.093Z" fill="#D379F9"/>
</g>
</g>
<defs>
<filter id="filter0_d_189_285" x="15.6986" y="15" width="224.597" height="86" filterUnits="userSpaceOnUse" color-interpolation-filters="sRGB">
<feFlood flood-opacity="0" result="BackgroundImageFix"/>
<feColorMatrix in="SourceAlpha" type="matrix" values="0 0 0 0 0 0 0 0 0 0 0 0 0 0 0 0 0 0 127 0" result="hardAlpha"/>
<feOffset/>
<feGaussianBlur stdDeviation="2.5"/>
<feColorMatrix type="matrix" values="0 0 0 0 0.67451 0 0 0 0 0.313726 0 0 0 0 0.823529 0 0 0 1 0"/>
<feBlend mode="normal" in2="BackgroundImageFix" result="effect1_dropShadow_189_285"/>
<feBlend mode="normal" in="SourceGraphic" in2="effect1_dropShadow_189_285" result="shape"/>
</filter>
<filter id="filter1_d_189_285" x="0.698608" y="0" width="254.597" height="116" filterUnits="userSpaceOnUse" color-interpolation-filters="sRGB">
<feFlood flood-opacity="0" result="BackgroundImageFix"/>
<feColorMatrix in="SourceAlpha" type="matrix" values="0 0 0 0 0 0 0 0 0 0 0 0 0 0 0 0 0 0 127 0" result="hardAlpha"/>
<feOffset/>
<feGaussianBlur stdDeviation="10"/>
<feColorMatrix type="matrix" values="0 0 0 0 0.913725 0 0 0 0 0.721569 0 0 0 0 0.32549 0 0 0 0.5 0"/>
<feBlend mode="normal" in2="BackgroundImageFix" result="effect1_dropShadow_189_285"/>
<feBlend mode="normal" in="SourceGraphic" in2="effect1_dropShadow_189_285" result="shape"/>
</filter>
<filter id="filter2_d_189_285" x="77.7275" y="44.2" width="101.742" height="31.456" filterUnits="userSpaceOnUse" color-interpolation-filters="sRGB">
<feFlood flood-opacity="0" result="BackgroundImageFix"/>
<feColorMatrix in="SourceAlpha" type="matrix" values="0 0 0 0 0 0 0 0 0 0 0 0 0 0 0 0 0 0 127 0" result="hardAlpha"/>
<feOffset/>
<feGaussianBlur stdDeviation="2.5"/>
<feColorMatrix type="matrix" values="0 0 0 0 0.835294 0 0 0 0 0.47451 0 0 0 0 0.247059 0 0 0 1 0"/>
<feBlend mode="normal" in2="BackgroundImageFix" result="effect1_dropShadow_189_285"/>
<feBlend mode="normal" in="SourceGraphic" in2="effect1_dropShadow_189_285" result="shape"/>
</filter>
</defs>
</svg>
