<svg width="92" height="76" viewBox="0 0 92 76" fill="none" xmlns="http://www.w3.org/2000/svg">
<path d="M15.6657 1.58798C15.8605 0.662488 16.677 0 17.6228 0H89.5351C90.8055 0 91.7539 1.16893 91.4922 2.41202L76.3343 74.412C76.1395 75.3375 75.323 76 74.3772 76H2.46489C1.19454 76 0.246089 74.8311 0.507794 73.588L15.6657 1.58798Z" fill="#201C6C"/>
<g clip-path="url(#clip0_189_255)">
<path d="M52.6613 24.6417H56.3129V18.2817C55.6829 18.195 53.5163 18 50.9929 18C45.7279 18 42.1213 21.3117 42.1213 27.3983V33H36.3113V40.11H42.1213V58H49.2446V40.1117H54.8196L55.7046 33.0017H49.2429V28.1033C49.2446 26.0483 49.7979 24.6417 52.6613 24.6417Z" fill="white"/>
</g>
<defs>
<clipPath id="clip0_189_255">
<rect width="40" height="40" fill="white" transform="translate(26 18)"/>
</clipPath>
</defs>
</svg>
