<svg width="92" height="76" viewBox="0 0 92 76" fill="none" xmlns="http://www.w3.org/2000/svg">
<path d="M15.6657 1.58798C15.8605 0.662488 16.677 0 17.6228 0H89.5351C90.8055 0 91.7539 1.16893 91.4922 2.41202L76.3343 74.412C76.1395 75.3375 75.323 76 74.3772 76H2.46489C1.19454 76 0.246089 74.8311 0.507794 73.588L15.6657 1.58798Z" fill="#201C6C"/>
<g clip-path="url(#clip0_189_267)">
<path d="M44.228 45.3573C41.4372 45.0662 38.9208 44.3789 36.7664 42.6939C36.4991 42.4843 36.2231 42.2822 35.9792 42.0481C35.0362 41.1424 34.9412 40.1052 35.6873 39.0363C36.3257 38.1216 37.3972 37.8769 38.511 38.4021C38.7267 38.5039 38.9321 38.631 39.129 38.7674C43.144 41.5262 48.6597 41.6024 52.6899 38.8915C53.0892 38.5853 53.516 38.3357 54.0107 38.2083C54.9725 37.9613 55.8695 38.3146 56.3856 39.1562C56.9753 40.1172 56.9678 41.0553 56.2412 41.8015C55.1267 42.9454 53.7863 43.773 52.297 44.3506C50.8888 44.8966 49.3463 45.1714 47.8197 45.3539C48.0501 45.6047 48.1586 45.728 48.3027 45.8727C50.3756 47.9555 52.4576 50.0296 54.5238 52.1188C55.2277 52.8306 55.3748 53.7132 54.9872 54.5412C54.5634 55.4461 53.6148 56.0415 52.6846 55.9777C52.0953 55.937 51.6357 55.6437 51.2274 55.2323C49.663 53.6582 48.0693 52.1131 46.5366 50.5092C46.0906 50.0428 45.8761 50.131 45.4824 50.5359C43.9087 52.1561 42.3093 53.7513 40.7004 55.3375C39.978 56.0498 39.1184 56.1779 38.2806 55.7711C37.3901 55.3394 36.8234 54.4304 36.8671 53.5168C36.8973 52.8988 37.2012 52.4268 37.6253 52.0034C39.6768 49.9549 41.7226 47.9012 43.7692 45.8494C43.9045 45.7129 44.0308 45.5681 44.228 45.3573Z" fill="white"/>
<path d="M45.9282 38.2219C40.9494 38.205 36.8669 34.0775 36.8959 29.0908C36.9246 24.0491 41.0098 19.9861 46.0376 20C51.0756 20.0136 55.1193 24.135 55.094 29.2292C55.0684 34.2057 50.9575 38.2393 45.9282 38.2219ZM50.4531 29.1029C50.4444 26.6269 48.4725 24.6557 46.0014 24.6534C43.5095 24.6508 41.5199 26.6578 41.5391 29.1564C41.5576 31.623 43.5465 33.5802 46.0244 33.5712C48.4947 33.5625 50.4614 31.5785 50.4531 29.1029Z" fill="white"/>
</g>
<defs>
<clipPath id="clip0_189_267">
<rect width="36" height="36" fill="white" transform="translate(28 20)"/>
</clipPath>
</defs>
</svg>
