<svg width="22" height="36" viewBox="0 0 22 36" fill="none" xmlns="http://www.w3.org/2000/svg">
<path d="M9.22802 25.3573C6.43718 25.0662 3.92083 24.3789 1.76643 22.6939C1.49911 22.4843 1.22312 22.2822 0.979174 22.0481C0.0362006 21.1424 -0.0588132 20.1052 0.687346 19.0363C1.32567 18.1216 2.39722 17.8769 3.51099 18.4021C3.72665 18.5039 3.93214 18.631 4.12895 18.7674C8.14404 21.5262 13.6597 21.6024 17.6899 18.8915C18.0892 18.5853 18.516 18.3357 19.0107 18.2083C19.9725 17.9613 20.8695 18.3146 21.3856 19.1562C21.9753 20.1172 21.9678 21.0553 21.2412 21.8015C20.1267 22.9454 18.7863 23.773 17.297 24.3506C15.8888 24.8966 14.3463 25.1714 12.8197 25.3539C13.0501 25.6047 13.1586 25.728 13.3027 25.8727C15.3756 27.9555 17.4576 30.0296 19.5238 32.1188C20.2277 32.8306 20.3748 33.7132 19.9872 34.5412C19.5634 35.4461 18.6148 36.0415 17.6846 35.9777C17.0953 35.937 16.6357 35.6437 16.2274 35.2323C14.663 33.6582 13.0693 32.1131 11.5366 30.5092C11.0906 30.0428 10.8761 30.131 10.4824 30.5359C8.90867 32.1561 7.30927 33.7513 5.70045 35.3375C4.97804 36.0498 4.1184 36.1779 3.28062 35.7711C2.39005 35.3394 1.82336 34.4304 1.8671 33.5168C1.89726 32.8988 2.20116 32.4268 2.62532 32.0034C4.67679 29.9549 6.7226 27.9012 8.76917 25.8494C8.90452 25.7129 9.03083 25.5681 9.22802 25.3573Z" fill="white"/>
<path d="M10.9282 18.2219C5.94944 18.205 1.86687 14.0775 1.89591 9.09081C1.92456 4.04905 6.00977 -0.0139146 11.0376 3.58173e-05C16.0756 0.0136092 20.1193 4.13502 20.094 9.22919C20.0684 14.2057 15.9575 18.2393 10.9282 18.2219ZM15.4531 9.10288C15.4444 6.62687 13.4725 4.65571 11.0014 4.65345C8.50953 4.65081 6.5199 6.65778 6.53913 9.15642C6.55761 11.623 8.54648 13.5802 11.0244 13.5712C13.4947 13.5625 15.4614 11.5785 15.4531 9.10288Z" fill="white"/>
</svg>
