<svg width="34" height="28" viewBox="0 0 34 28" fill="none" xmlns="http://www.w3.org/2000/svg">
<path d="M30.5065 7.07675C31.8892 6.095 33.0522 4.86958 34 3.45858V3.45717C32.7349 4.01108 31.3891 4.37942 29.9838 4.55792C31.4288 3.69517 32.5323 2.33942 33.0508 0.706C31.7036 1.50925 30.2161 2.07592 28.6308 2.39325C27.3516 1.03042 25.5283 0.1875 23.5393 0.1875C19.6803 0.1875 16.5736 3.31975 16.5736 7.15892C16.5736 7.71142 16.6203 8.24267 16.7351 8.74842C10.9409 8.46508 5.81258 5.68842 2.36725 1.45683C1.76658 2.50092 1.41242 3.69517 1.41242 4.98008C1.41242 7.39408 2.65483 9.53325 4.50925 10.7728C3.38867 10.7516 2.29075 10.4257 1.36 9.91433V9.99083C1.36 13.3781 3.77542 16.1916 6.9445 16.8404C6.37642 16.9962 5.75875 17.0699 5.117 17.0699C4.67075 17.0699 4.22025 17.0444 3.79808 16.9509C4.7005 19.7106 7.26467 21.7407 10.3105 21.8072C7.939 23.6617 4.92717 24.7794 1.66742 24.7794C1.0965 24.7794 0.54825 24.7539 0 24.6845C3.08833 26.6749 6.74617 27.8125 10.693 27.8125C22.9939 27.8125 31.0108 17.5502 30.5065 7.07675V7.07675Z" fill="white"/>
</svg>
