<svg width="92" height="76" viewBox="0 0 92 76" fill="none" xmlns="http://www.w3.org/2000/svg">
<path d="M15.6657 1.58798C15.8605 0.662488 16.677 0 17.6228 0H89.5351C90.8055 0 91.7539 1.16893 91.4922 2.41202L76.3343 74.412C76.1395 75.3375 75.323 76 74.3772 76H2.46489C1.19454 76 0.246089 74.8311 0.507794 73.588L15.6657 1.58798Z" fill="#201C6C"/>
<g clip-path="url(#clip0_189_259)">
<path d="M59.1917 39.7134C58.545 38.8967 58.73 38.5334 59.1917 37.8034C59.2 37.795 64.5383 30.4184 65.0883 27.9167L65.0917 27.915C65.365 27.0034 65.0917 26.3334 63.77 26.3334H59.3967C58.2833 26.3334 57.77 26.9084 57.495 27.5517C57.495 27.5517 55.2683 32.8817 52.1183 36.3367C51.1017 37.335 50.6317 37.655 50.0767 37.655C49.8033 37.655 49.3783 37.335 49.3783 36.4234V27.915C49.3783 26.8217 49.0667 26.3334 48.145 26.3334H41.2683C40.57 26.3334 40.155 26.8434 40.155 27.3184C40.155 28.355 41.73 28.5934 41.8933 31.51V37.8384C41.8933 39.225 41.6417 39.48 41.0833 39.48C39.5967 39.48 35.9883 34.1284 33.85 28.0034C33.4183 26.815 32.9967 26.335 31.875 26.335H27.5C26.2517 26.335 26 26.91 26 27.5534C26 28.69 27.4867 34.3417 32.9133 41.8084C36.53 46.905 41.6233 49.6667 46.2567 49.6667C49.0417 49.6667 49.3817 49.0534 49.3817 47.9984C49.3817 43.1284 49.13 42.6684 50.525 42.6684C51.1717 42.6684 52.285 42.9884 54.885 45.4467C57.8567 48.3617 58.345 49.6667 60.0083 49.6667H64.3817C65.6283 49.6667 66.26 49.0534 65.8967 47.8434C65.065 45.2984 59.445 40.0634 59.1917 39.7134Z" fill="white"/>
</g>
<defs>
<clipPath id="clip0_189_259">
<rect width="40" height="40" fill="white" transform="translate(26 18)"/>
</clipPath>
</defs>
</svg>
