<svg width="160" height="86" viewBox="0 0 160 86" fill="none" xmlns="http://www.w3.org/2000/svg">
<g filter="url(#filter0_d_189_282)">
<path d="M21.5265 7.58673C21.7218 6.66183 22.5381 6 23.4833 6H151.294C152.566 6 153.515 7.17206 153.251 8.41634L138.352 78.4163C138.156 79.3398 137.34 80 136.396 80H8.69975C7.42889 80 6.48031 78.8302 6.74292 77.5867L21.5265 7.58673Z" stroke="#67F3FF" stroke-width="2"/>
</g>
<g filter="url(#filter1_d_189_282)">
<path d="M76.2309 42.24C77.2389 42.56 78.0229 43.08 78.5829 43.8C79.1589 44.504 79.4469 45.336 79.4469 46.296C79.4469 47.304 79.1189 48.184 78.4629 48.936C77.8069 49.672 76.9269 50.24 75.8229 50.64C74.7349 51.04 73.5429 51.24 72.2469 51.24C71.1269 51.24 69.9989 51.088 68.8629 50.784C67.7429 50.464 66.7029 49.992 65.7429 49.368L66.7509 47.088C67.4869 47.584 68.3029 47.968 69.1989 48.24C70.0949 48.496 70.9829 48.624 71.8629 48.624C73.1269 48.624 74.1749 48.376 75.0069 47.88C75.8549 47.384 76.2789 46.704 76.2789 45.84C76.2789 45.104 75.9749 44.544 75.3669 44.16C74.7589 43.776 73.9189 43.584 72.8469 43.584H68.9349V41.136H72.6069C73.5349 41.136 74.2629 40.944 74.7909 40.56C75.3189 40.176 75.5829 39.656 75.5829 39C75.5829 38.216 75.2229 37.608 74.5029 37.176C73.7989 36.744 72.8949 36.528 71.7909 36.528C71.0389 36.528 70.2629 36.64 69.4629 36.864C68.6629 37.072 67.9109 37.384 67.2069 37.8L66.2229 35.28C67.0869 34.816 67.9989 34.472 68.9589 34.248C69.9349 34.008 70.9029 33.888 71.8629 33.888C73.1109 33.888 74.2549 34.08 75.2949 34.464C76.3509 34.848 77.1909 35.4 77.8149 36.12C78.4389 36.824 78.7509 37.656 78.7509 38.616C78.7509 39.448 78.5269 40.176 78.0789 40.8C77.6309 41.424 77.0149 41.904 76.2309 42.24ZM87.4248 38.04C89.3128 38.04 90.7528 38.496 91.7448 39.408C92.7528 40.304 93.2568 41.664 93.2568 43.488V51H90.4248V49.44C90.0568 50 89.5288 50.432 88.8408 50.736C88.1688 51.024 87.3528 51.168 86.3928 51.168C85.4328 51.168 84.5928 51.008 83.8728 50.688C83.1528 50.352 82.5928 49.896 82.1928 49.32C81.8088 48.728 81.6168 48.064 81.6168 47.328C81.6168 46.176 82.0408 45.256 82.8888 44.568C83.7528 43.864 85.1048 43.512 86.9448 43.512H90.2568V43.32C90.2568 42.424 89.9848 41.736 89.4408 41.256C88.9128 40.776 88.1208 40.536 87.0648 40.536C86.3448 40.536 85.6328 40.648 84.9288 40.872C84.2408 41.096 83.6568 41.408 83.1768 41.808L82.0008 39.624C82.6728 39.112 83.4808 38.72 84.4248 38.448C85.3688 38.176 86.3688 38.04 87.4248 38.04ZM87.0168 48.984C87.7688 48.984 88.4328 48.816 89.0088 48.48C89.6008 48.128 90.0168 47.632 90.2568 46.992V45.504H87.1608C85.4328 45.504 84.5688 46.072 84.5688 47.208C84.5688 47.752 84.7848 48.184 85.2168 48.504C85.6488 48.824 86.2488 48.984 87.0168 48.984Z" fill="#67F3FF"/>
</g>
<defs>
<filter id="filter0_d_189_282" x="0.698608" y="0" width="158.597" height="86" filterUnits="userSpaceOnUse" color-interpolation-filters="sRGB">
<feFlood flood-opacity="0" result="BackgroundImageFix"/>
<feColorMatrix in="SourceAlpha" type="matrix" values="0 0 0 0 0 0 0 0 0 0 0 0 0 0 0 0 0 0 127 0" result="hardAlpha"/>
<feOffset/>
<feGaussianBlur stdDeviation="2.5"/>
<feColorMatrix type="matrix" values="0 0 0 0 0.403922 0 0 0 0 0.952941 0 0 0 0 1 0 0 0 1 0"/>
<feBlend mode="normal" in2="BackgroundImageFix" result="effect1_dropShadow_189_282"/>
<feBlend mode="normal" in="SourceGraphic" in2="effect1_dropShadow_189_282" result="shape"/>
</filter>
<filter id="filter1_d_189_282" x="60.7429" y="28.888" width="37.5139" height="27.352" filterUnits="userSpaceOnUse" color-interpolation-filters="sRGB">
<feFlood flood-opacity="0" result="BackgroundImageFix"/>
<feColorMatrix in="SourceAlpha" type="matrix" values="0 0 0 0 0 0 0 0 0 0 0 0 0 0 0 0 0 0 127 0" result="hardAlpha"/>
<feOffset/>
<feGaussianBlur stdDeviation="2.5"/>
<feColorMatrix type="matrix" values="0 0 0 0 0.403922 0 0 0 0 0.952941 0 0 0 0 1 0 0 0 1 0"/>
<feBlend mode="normal" in2="BackgroundImageFix" result="effect1_dropShadow_189_282"/>
<feBlend mode="normal" in="SourceGraphic" in2="effect1_dropShadow_189_282" result="shape"/>
</filter>
</defs>
</svg>
