<svg width="190" height="116" viewBox="0 0 190 116" fill="none" xmlns="http://www.w3.org/2000/svg">
<g filter="url(#filter0_d_205_51)">
<path d="M35.5481 22.3801C35.8411 20.9928 37.0654 20 38.4833 20H166.294C168.203 20 169.626 21.7581 169.229 23.6245L154.33 93.6245C154.036 95.0097 152.812 96 151.396 96H23.6998C21.7934 96 20.3706 94.2453 20.7645 92.3801L35.5481 22.3801Z" fill="#67F3FF"/>
<path d="M36.5265 22.5867C36.7218 21.6618 37.5381 21 38.4833 21H166.294C167.566 21 168.515 22.1721 168.251 23.4163L153.352 93.4163C153.156 94.3398 152.34 95 151.396 95H23.6998C22.4289 95 21.4803 93.8302 21.7429 92.5867L36.5265 22.5867Z" stroke="#67F3FF" stroke-width="2"/>
</g>
<g filter="url(#filter1_d_205_51)">
<path d="M91.2309 57.24C92.2389 57.56 93.0229 58.08 93.5829 58.8C94.1589 59.504 94.4469 60.336 94.4469 61.296C94.4469 62.304 94.1189 63.184 93.4629 63.936C92.8069 64.672 91.9269 65.24 90.8229 65.64C89.7349 66.04 88.5429 66.24 87.2469 66.24C86.1269 66.24 84.9989 66.088 83.8629 65.784C82.7429 65.464 81.7029 64.992 80.7429 64.368L81.7509 62.088C82.4869 62.584 83.3029 62.968 84.1989 63.24C85.0949 63.496 85.9829 63.624 86.8629 63.624C88.1269 63.624 89.1749 63.376 90.0069 62.88C90.8549 62.384 91.2789 61.704 91.2789 60.84C91.2789 60.104 90.9749 59.544 90.3669 59.16C89.7589 58.776 88.9189 58.584 87.8469 58.584H83.9349V56.136H87.6069C88.5349 56.136 89.2629 55.944 89.7909 55.56C90.3189 55.176 90.5829 54.656 90.5829 54C90.5829 53.216 90.2229 52.608 89.5029 52.176C88.7989 51.744 87.8949 51.528 86.7909 51.528C86.0389 51.528 85.2629 51.64 84.4629 51.864C83.6629 52.072 82.9109 52.384 82.2069 52.8L81.2229 50.28C82.0869 49.816 82.9989 49.472 83.9589 49.248C84.9349 49.008 85.9029 48.888 86.8629 48.888C88.1109 48.888 89.2549 49.08 90.2949 49.464C91.3509 49.848 92.1909 50.4 92.8149 51.12C93.4389 51.824 93.7509 52.656 93.7509 53.616C93.7509 54.448 93.5269 55.176 93.0789 55.8C92.6309 56.424 92.0149 56.904 91.2309 57.24ZM102.425 53.04C104.313 53.04 105.753 53.496 106.745 54.408C107.753 55.304 108.257 56.664 108.257 58.488V66H105.425V64.44C105.057 65 104.529 65.432 103.841 65.736C103.169 66.024 102.353 66.168 101.393 66.168C100.433 66.168 99.5928 66.008 98.8728 65.688C98.1528 65.352 97.5928 64.896 97.1928 64.32C96.8088 63.728 96.6168 63.064 96.6168 62.328C96.6168 61.176 97.0408 60.256 97.8888 59.568C98.7528 58.864 100.105 58.512 101.945 58.512H105.257V58.32C105.257 57.424 104.985 56.736 104.441 56.256C103.913 55.776 103.121 55.536 102.065 55.536C101.345 55.536 100.633 55.648 99.9288 55.872C99.2408 56.096 98.6568 56.408 98.1768 56.808L97.0008 54.624C97.6728 54.112 98.4808 53.72 99.4248 53.448C100.369 53.176 101.369 53.04 102.425 53.04ZM102.017 63.984C102.769 63.984 103.433 63.816 104.009 63.48C104.601 63.128 105.017 62.632 105.257 61.992V60.504H102.161C100.433 60.504 99.5688 61.072 99.5688 62.208C99.5688 62.752 99.7848 63.184 100.217 63.504C100.649 63.824 101.249 63.984 102.017 63.984Z" fill="#4537B7"/>
</g>
<defs>
<filter id="filter0_d_205_51" x="0.69873" y="0" width="188.597" height="116" filterUnits="userSpaceOnUse" color-interpolation-filters="sRGB">
<feFlood flood-opacity="0" result="BackgroundImageFix"/>
<feColorMatrix in="SourceAlpha" type="matrix" values="0 0 0 0 0 0 0 0 0 0 0 0 0 0 0 0 0 0 127 0" result="hardAlpha"/>
<feOffset/>
<feGaussianBlur stdDeviation="10"/>
<feColorMatrix type="matrix" values="0 0 0 0 0.403922 0 0 0 0 0.952941 0 0 0 0 1 0 0 0 1 0"/>
<feBlend mode="normal" in2="BackgroundImageFix" result="effect1_dropShadow_205_51"/>
<feBlend mode="normal" in="SourceGraphic" in2="effect1_dropShadow_205_51" result="shape"/>
</filter>
<filter id="filter1_d_205_51" x="75.7429" y="43.888" width="37.5139" height="27.352" filterUnits="userSpaceOnUse" color-interpolation-filters="sRGB">
<feFlood flood-opacity="0" result="BackgroundImageFix"/>
<feColorMatrix in="SourceAlpha" type="matrix" values="0 0 0 0 0 0 0 0 0 0 0 0 0 0 0 0 0 0 127 0" result="hardAlpha"/>
<feOffset/>
<feGaussianBlur stdDeviation="2.5"/>
<feColorMatrix type="matrix" values="0 0 0 0 0.403922 0 0 0 0 0.952941 0 0 0 0 1 0 0 0 1 0"/>
<feBlend mode="normal" in2="BackgroundImageFix" result="effect1_dropShadow_205_51"/>
<feBlend mode="normal" in="SourceGraphic" in2="effect1_dropShadow_205_51" result="shape"/>
</filter>
</defs>
</svg>
