<svg width="476" height="136" viewBox="0 0 476 136" fill="none" xmlns="http://www.w3.org/2000/svg">
<g filter="url(#filter0_d_205_44)">
<path d="M43.2382 32.4684C43.4954 31.0396 44.7389 30 46.1907 30H442.407C444.278 30 445.693 31.6944 445.359 33.5355L432.658 103.536C432.399 104.963 431.157 106 429.707 106H33.5884C31.7187 106 30.3045 104.308 30.6358 102.468L43.2382 32.4684Z" fill="url(#paint0_linear_205_44)"/>
</g>
<path d="M84.4437 59.2C85.8997 59.2 87.1637 59.44 88.2357 59.92C89.3237 60.4 90.1557 61.088 90.7317 61.984C91.3077 62.88 91.5957 63.944 91.5957 65.176C91.5957 66.392 91.3077 67.456 90.7317 68.368C90.1557 69.264 89.3237 69.952 88.2357 70.432C87.1637 70.912 85.8997 71.152 84.4437 71.152H80.6517V76H77.5317V59.2H84.4437ZM84.2997 68.512C85.6597 68.512 86.6917 68.224 87.3957 67.648C88.0997 67.072 88.4517 66.248 88.4517 65.176C88.4517 64.104 88.0997 63.28 87.3957 62.704C86.6917 62.128 85.6597 61.84 84.2997 61.84H80.6517V68.512H84.2997ZM106.164 69.664C106.164 69.872 106.148 70.168 106.116 70.552H96.0605C96.2365 71.496 96.6925 72.248 97.4285 72.808C98.1805 73.352 99.1085 73.624 100.212 73.624C101.62 73.624 102.78 73.16 103.692 72.232L105.3 74.08C104.724 74.768 103.996 75.288 103.116 75.64C102.236 75.992 101.244 76.168 100.14 76.168C98.7325 76.168 97.4925 75.888 96.4205 75.328C95.3485 74.768 94.5165 73.992 93.9245 73C93.3485 71.992 93.0605 70.856 93.0605 69.592C93.0605 68.344 93.3405 67.224 93.9005 66.232C94.4765 65.224 95.2685 64.44 96.2765 63.88C97.2845 63.32 98.4205 63.04 99.6845 63.04C100.932 63.04 102.044 63.32 103.02 63.88C104.012 64.424 104.78 65.2 105.324 66.208C105.884 67.2 106.164 68.352 106.164 69.664ZM99.6845 65.44C98.7245 65.44 97.9085 65.728 97.2365 66.304C96.5805 66.864 96.1805 67.616 96.0365 68.56H103.308C103.18 67.632 102.788 66.88 102.132 66.304C101.476 65.728 100.66 65.44 99.6845 65.44ZM113.87 63.04C115.758 63.04 117.198 63.496 118.19 64.408C119.198 65.304 119.702 66.664 119.702 68.488V76H116.87V74.44C116.502 75 115.974 75.432 115.286 75.736C114.614 76.024 113.798 76.168 112.838 76.168C111.878 76.168 111.038 76.008 110.318 75.688C109.598 75.352 109.038 74.896 108.638 74.32C108.254 73.728 108.062 73.064 108.062 72.328C108.062 71.176 108.486 70.256 109.334 69.568C110.198 68.864 111.55 68.512 113.39 68.512H116.702V68.32C116.702 67.424 116.43 66.736 115.886 66.256C115.358 65.776 114.566 65.536 113.51 65.536C112.79 65.536 112.078 65.648 111.374 65.872C110.686 66.096 110.102 66.408 109.622 66.808L108.446 64.624C109.118 64.112 109.926 63.72 110.87 63.448C111.814 63.176 112.814 63.04 113.87 63.04ZM113.462 73.984C114.214 73.984 114.878 73.816 115.454 73.48C116.046 73.128 116.462 72.632 116.702 71.992V70.504H113.606C111.878 70.504 111.014 71.072 111.014 72.208C111.014 72.752 111.23 73.184 111.662 73.504C112.094 73.824 112.694 73.984 113.462 73.984ZM135.03 63.184V76H132.03V65.728H127.23L127.11 68.272C127.03 69.968 126.87 71.392 126.63 72.544C126.406 73.68 126.014 74.584 125.454 75.256C124.91 75.912 124.158 76.24 123.198 76.24C122.75 76.24 122.198 76.152 121.542 75.976L121.686 73.456C121.91 73.504 122.102 73.528 122.262 73.528C122.87 73.528 123.326 73.288 123.63 72.808C123.934 72.312 124.126 71.728 124.206 71.056C124.302 70.368 124.382 69.392 124.446 68.128L124.662 63.184H135.03ZM139.071 63.184H142.071V71.632L149.151 63.184H151.887V76H148.887V67.552L141.831 76H139.071V63.184ZM163.414 69.328C164.214 69.552 164.83 69.92 165.262 70.432C165.71 70.928 165.934 71.528 165.934 72.232C165.934 73.016 165.67 73.712 165.142 74.32C164.614 74.912 163.886 75.376 162.958 75.712C162.03 76.048 160.974 76.216 159.79 76.216C158.798 76.216 157.83 76.104 156.886 75.88C155.942 75.64 155.086 75.304 154.318 74.872L155.182 72.64C155.806 72.992 156.51 73.264 157.294 73.456C158.078 73.648 158.862 73.744 159.646 73.744C160.654 73.744 161.438 73.592 161.998 73.288C162.574 72.968 162.862 72.536 162.862 71.992C162.862 71.496 162.638 71.112 162.19 70.84C161.758 70.568 161.142 70.432 160.342 70.432H157.846V68.416H160.102C160.854 68.416 161.438 68.288 161.854 68.032C162.286 67.776 162.502 67.416 162.502 66.952C162.502 66.488 162.246 66.12 161.734 65.848C161.222 65.576 160.518 65.44 159.622 65.44C158.342 65.44 156.99 65.752 155.566 66.376L154.798 64.168C156.478 63.384 158.174 62.992 159.886 62.992C160.974 62.992 161.95 63.144 162.814 63.448C163.678 63.736 164.35 64.152 164.83 64.696C165.326 65.224 165.574 65.832 165.574 66.52C165.574 67.144 165.382 67.704 164.998 68.2C164.614 68.68 164.086 69.056 163.414 69.328ZM174.759 76.168C173.463 76.168 172.295 75.888 171.255 75.328C170.215 74.768 169.399 73.992 168.807 73C168.231 71.992 167.943 70.856 167.943 69.592C167.943 68.328 168.231 67.2 168.807 66.208C169.399 65.216 170.215 64.44 171.255 63.88C172.295 63.32 173.463 63.04 174.759 63.04C176.071 63.04 177.247 63.32 178.287 63.88C179.327 64.44 180.135 65.216 180.711 66.208C181.303 67.2 181.599 68.328 181.599 69.592C181.599 70.856 181.303 71.992 180.711 73C180.135 73.992 179.327 74.768 178.287 75.328C177.247 75.888 176.071 76.168 174.759 76.168ZM174.759 73.6C175.863 73.6 176.775 73.232 177.495 72.496C178.215 71.76 178.575 70.792 178.575 69.592C178.575 68.392 178.215 67.424 177.495 66.688C176.775 65.952 175.863 65.584 174.759 65.584C173.655 65.584 172.743 65.952 172.023 66.688C171.319 67.424 170.967 68.392 170.967 69.592C170.967 70.792 171.319 71.76 172.023 72.496C172.743 73.232 173.655 73.6 174.759 73.6ZM193.851 69.328C195.435 69.808 196.227 70.832 196.227 72.4C196.227 73.552 195.795 74.44 194.931 75.064C194.067 75.688 192.787 76 191.091 76H184.563V63.184H190.827C192.395 63.184 193.619 63.472 194.499 64.048C195.379 64.624 195.819 65.44 195.819 66.496C195.819 67.152 195.643 67.72 195.291 68.2C194.955 68.68 194.475 69.056 193.851 69.328ZM187.419 68.536H190.563C192.115 68.536 192.891 68 192.891 66.928C192.891 65.888 192.115 65.368 190.563 65.368H187.419V68.536ZM190.851 73.816C192.499 73.816 193.323 73.28 193.323 72.208C193.323 71.648 193.131 71.232 192.747 70.96C192.363 70.672 191.763 70.528 190.947 70.528H187.419V73.816H190.851ZM204.198 63.04C206.086 63.04 207.526 63.496 208.518 64.408C209.526 65.304 210.03 66.664 210.03 68.488V76H207.198V74.44C206.83 75 206.302 75.432 205.614 75.736C204.942 76.024 204.126 76.168 203.166 76.168C202.206 76.168 201.366 76.008 200.646 75.688C199.926 75.352 199.366 74.896 198.966 74.32C198.582 73.728 198.39 73.064 198.39 72.328C198.39 71.176 198.814 70.256 199.662 69.568C200.526 68.864 201.878 68.512 203.718 68.512H207.03V68.32C207.03 67.424 206.758 66.736 206.214 66.256C205.686 65.776 204.894 65.536 203.838 65.536C203.118 65.536 202.406 65.648 201.702 65.872C201.014 66.096 200.43 66.408 199.95 66.808L198.774 64.624C199.446 64.112 200.254 63.72 201.198 63.448C202.142 63.176 203.142 63.04 204.198 63.04ZM203.79 73.984C204.542 73.984 205.206 73.816 205.782 73.48C206.374 73.128 206.79 72.632 207.03 71.992V70.504H203.934C202.206 70.504 201.342 71.072 201.342 72.208C201.342 72.752 201.558 73.184 201.99 73.504C202.422 73.824 203.022 73.984 203.79 73.984ZM223.895 65.728H219.407V76H216.407V65.728H211.895V63.184H223.895V65.728ZM232.503 67.408C234.135 67.408 235.383 67.776 236.247 68.512C237.127 69.248 237.567 70.288 237.567 71.632C237.567 73.04 237.087 74.128 236.127 74.896C235.167 75.664 233.815 76.04 232.071 76.024L226.071 76V63.184H229.071V67.384L232.503 67.408ZM231.807 73.816C232.687 73.832 233.359 73.648 233.823 73.264C234.287 72.88 234.519 72.32 234.519 71.584C234.519 70.864 234.295 70.336 233.847 70C233.399 69.664 232.719 69.488 231.807 69.472L229.071 69.448V73.792L231.807 73.816ZM246.836 63.184H249.836V71.632L256.916 63.184H259.652V76H256.652V67.552L249.596 76H246.836V63.184ZM263.688 63.184H266.688V68.392H273.144V63.184H276.144V76H273.144V70.936H266.688V76H263.688V63.184ZM280.164 63.184H283.164V71.632L290.244 63.184H292.98V76H289.98V67.552L282.924 76H280.164V63.184ZM311.08 73.456V78.952H308.272V76H297.016V63.184H300.016V73.456H306.136V63.184H309.136V73.456H311.08ZM313.75 63.184H316.75V71.632L323.83 63.184H326.566V76H323.566V67.552L316.51 76H313.75V63.184ZM335.378 63.04C337.266 63.04 338.706 63.496 339.698 64.408C340.706 65.304 341.21 66.664 341.21 68.488V76H338.378V74.44C338.01 75 337.482 75.432 336.794 75.736C336.122 76.024 335.306 76.168 334.346 76.168C333.386 76.168 332.546 76.008 331.826 75.688C331.106 75.352 330.546 74.896 330.146 74.32C329.762 73.728 329.57 73.064 329.57 72.328C329.57 71.176 329.994 70.256 330.842 69.568C331.706 68.864 333.058 68.512 334.898 68.512H338.21V68.32C338.21 67.424 337.938 66.736 337.394 66.256C336.866 65.776 336.074 65.536 335.018 65.536C334.298 65.536 333.586 65.648 332.882 65.872C332.194 66.096 331.61 66.408 331.13 66.808L329.954 64.624C330.626 64.112 331.434 63.72 332.378 63.448C333.322 63.176 334.322 63.04 335.378 63.04ZM334.97 73.984C335.722 73.984 336.386 73.816 336.962 73.48C337.554 73.128 337.97 72.632 338.21 71.992V70.504H335.114C333.386 70.504 332.522 71.072 332.522 72.208C332.522 72.752 332.738 73.184 333.17 73.504C333.602 73.824 334.202 73.984 334.97 73.984ZM355.074 65.728H350.586V76H347.586V65.728H343.074V63.184H355.074V65.728ZM357.25 63.184H360.25V71.632L367.33 63.184H370.066V76H367.066V67.552L360.01 76H357.25V63.184ZM383.39 69.328C384.974 69.808 385.766 70.832 385.766 72.4C385.766 73.552 385.334 74.44 384.47 75.064C383.606 75.688 382.326 76 380.63 76H374.102V63.184H380.366C381.934 63.184 383.158 63.472 384.038 64.048C384.918 64.624 385.358 65.44 385.358 66.496C385.358 67.152 385.182 67.72 384.83 68.2C384.494 68.68 384.014 69.056 383.39 69.328ZM376.958 68.536H380.102C381.654 68.536 382.43 68 382.43 66.928C382.43 65.888 381.654 65.368 380.102 65.368H376.958V68.536ZM380.39 73.816C382.038 73.816 382.862 73.28 382.862 72.208C382.862 71.648 382.67 71.232 382.286 70.96C381.902 70.672 381.302 70.528 380.486 70.528H376.958V73.816H380.39ZM401.057 63.184L395.057 77.032C394.497 78.424 393.817 79.4 393.017 79.96C392.217 80.536 391.249 80.824 390.113 80.824C389.473 80.824 388.841 80.72 388.217 80.512C387.593 80.304 387.081 80.016 386.681 79.648L387.881 77.44C388.169 77.712 388.505 77.928 388.889 78.088C389.289 78.248 389.689 78.328 390.089 78.328C390.617 78.328 391.049 78.192 391.385 77.92C391.737 77.648 392.057 77.192 392.345 76.552L392.561 76.048L386.969 63.184H390.089L394.121 72.664L398.177 63.184H401.057Z" fill="white"/>
<defs>
<filter id="filter0_d_205_44" x="0.587402" y="0" width="474.82" height="136" filterUnits="userSpaceOnUse" color-interpolation-filters="sRGB">
<feFlood flood-opacity="0" result="BackgroundImageFix"/>
<feColorMatrix in="SourceAlpha" type="matrix" values="0 0 0 0 0 0 0 0 0 0 0 0 0 0 0 0 0 0 127 0" result="hardAlpha"/>
<feOffset/>
<feGaussianBlur stdDeviation="15"/>
<feColorMatrix type="matrix" values="0 0 0 0 0.913725 0 0 0 0 0.721569 0 0 0 0 0.32549 0 0 0 0.8 0"/>
<feBlend mode="normal" in2="BackgroundImageFix" result="effect1_dropShadow_205_44"/>
<feBlend mode="normal" in="SourceGraphic" in2="effect1_dropShadow_205_44" result="shape"/>
</filter>
<linearGradient id="paint0_linear_205_44" x1="30" y1="68" x2="446" y2="68" gradientUnits="userSpaceOnUse">
<stop stop-color="#FCF565"/>
<stop offset="1" stop-color="#D5793F"/>
</linearGradient>
</defs>
</svg>
