<svg width="456" height="116" viewBox="0 0 456 116" fill="none" xmlns="http://www.w3.org/2000/svg">
<g filter="url(#filter0_d_189_289)">
<path d="M33.2382 22.4684C33.4954 21.0396 34.7389 20 36.1907 20H432.407C434.278 20 435.693 21.6944 435.359 23.5355L422.658 93.5355C422.399 94.9625 421.157 96 419.707 96H23.5884C21.7187 96 20.3045 94.3085 20.6358 92.4684L33.2382 22.4684Z" fill="url(#paint0_linear_189_289)"/>
</g>
<path d="M74.4437 49.2C75.8997 49.2 77.1637 49.44 78.2357 49.92C79.3237 50.4 80.1557 51.088 80.7317 51.984C81.3077 52.88 81.5957 53.944 81.5957 55.176C81.5957 56.392 81.3077 57.456 80.7317 58.368C80.1557 59.264 79.3237 59.952 78.2357 60.432C77.1637 60.912 75.8997 61.152 74.4437 61.152H70.6517V66H67.5317V49.2H74.4437ZM74.2997 58.512C75.6597 58.512 76.6917 58.224 77.3957 57.648C78.0997 57.072 78.4517 56.248 78.4517 55.176C78.4517 54.104 78.0997 53.28 77.3957 52.704C76.6917 52.128 75.6597 51.84 74.2997 51.84H70.6517V58.512H74.2997ZM96.1645 59.664C96.1645 59.872 96.1485 60.168 96.1165 60.552H86.0605C86.2365 61.496 86.6925 62.248 87.4285 62.808C88.1805 63.352 89.1085 63.624 90.2125 63.624C91.6205 63.624 92.7805 63.16 93.6925 62.232L95.3005 64.08C94.7245 64.768 93.9965 65.288 93.1165 65.64C92.2365 65.992 91.2445 66.168 90.1405 66.168C88.7325 66.168 87.4925 65.888 86.4205 65.328C85.3485 64.768 84.5165 63.992 83.9245 63C83.3485 61.992 83.0605 60.856 83.0605 59.592C83.0605 58.344 83.3405 57.224 83.9005 56.232C84.4765 55.224 85.2685 54.44 86.2765 53.88C87.2845 53.32 88.4205 53.04 89.6845 53.04C90.9325 53.04 92.0445 53.32 93.0205 53.88C94.0125 54.424 94.7805 55.2 95.3245 56.208C95.8845 57.2 96.1645 58.352 96.1645 59.664ZM89.6845 55.44C88.7245 55.44 87.9085 55.728 87.2365 56.304C86.5805 56.864 86.1805 57.616 86.0365 58.56H93.3085C93.1805 57.632 92.7885 56.88 92.1325 56.304C91.4765 55.728 90.6605 55.44 89.6845 55.44ZM103.87 53.04C105.758 53.04 107.198 53.496 108.19 54.408C109.198 55.304 109.702 56.664 109.702 58.488V66H106.87V64.44C106.502 65 105.974 65.432 105.286 65.736C104.614 66.024 103.798 66.168 102.838 66.168C101.878 66.168 101.038 66.008 100.318 65.688C99.5982 65.352 99.0382 64.896 98.6382 64.32C98.2542 63.728 98.0622 63.064 98.0622 62.328C98.0622 61.176 98.4862 60.256 99.3342 59.568C100.198 58.864 101.55 58.512 103.39 58.512H106.702V58.32C106.702 57.424 106.43 56.736 105.886 56.256C105.358 55.776 104.566 55.536 103.51 55.536C102.79 55.536 102.078 55.648 101.374 55.872C100.686 56.096 100.102 56.408 99.6222 56.808L98.4462 54.624C99.1182 54.112 99.9262 53.72 100.87 53.448C101.814 53.176 102.814 53.04 103.87 53.04ZM103.462 63.984C104.214 63.984 104.878 63.816 105.454 63.48C106.046 63.128 106.462 62.632 106.702 61.992V60.504H103.606C101.878 60.504 101.014 61.072 101.014 62.208C101.014 62.752 101.23 63.184 101.662 63.504C102.094 63.824 102.694 63.984 103.462 63.984ZM125.03 53.184V66H122.03V55.728H117.23L117.11 58.272C117.03 59.968 116.87 61.392 116.63 62.544C116.406 63.68 116.014 64.584 115.454 65.256C114.91 65.912 114.158 66.24 113.198 66.24C112.75 66.24 112.198 66.152 111.542 65.976L111.686 63.456C111.91 63.504 112.102 63.528 112.262 63.528C112.87 63.528 113.326 63.288 113.63 62.808C113.934 62.312 114.126 61.728 114.206 61.056C114.302 60.368 114.382 59.392 114.446 58.128L114.662 53.184H125.03ZM129.071 53.184H132.071V61.632L139.151 53.184H141.887V66H138.887V57.552L131.831 66H129.071V53.184ZM153.414 59.328C154.214 59.552 154.83 59.92 155.262 60.432C155.71 60.928 155.934 61.528 155.934 62.232C155.934 63.016 155.67 63.712 155.142 64.32C154.614 64.912 153.886 65.376 152.958 65.712C152.03 66.048 150.974 66.216 149.79 66.216C148.798 66.216 147.83 66.104 146.886 65.88C145.942 65.64 145.086 65.304 144.318 64.872L145.182 62.64C145.806 62.992 146.51 63.264 147.294 63.456C148.078 63.648 148.862 63.744 149.646 63.744C150.654 63.744 151.438 63.592 151.998 63.288C152.574 62.968 152.862 62.536 152.862 61.992C152.862 61.496 152.638 61.112 152.19 60.84C151.758 60.568 151.142 60.432 150.342 60.432H147.846V58.416H150.102C150.854 58.416 151.438 58.288 151.854 58.032C152.286 57.776 152.502 57.416 152.502 56.952C152.502 56.488 152.246 56.12 151.734 55.848C151.222 55.576 150.518 55.44 149.622 55.44C148.342 55.44 146.99 55.752 145.566 56.376L144.798 54.168C146.478 53.384 148.174 52.992 149.886 52.992C150.974 52.992 151.95 53.144 152.814 53.448C153.678 53.736 154.35 54.152 154.83 54.696C155.326 55.224 155.574 55.832 155.574 56.52C155.574 57.144 155.382 57.704 154.998 58.2C154.614 58.68 154.086 59.056 153.414 59.328ZM164.759 66.168C163.463 66.168 162.295 65.888 161.255 65.328C160.215 64.768 159.399 63.992 158.807 63C158.231 61.992 157.943 60.856 157.943 59.592C157.943 58.328 158.231 57.2 158.807 56.208C159.399 55.216 160.215 54.44 161.255 53.88C162.295 53.32 163.463 53.04 164.759 53.04C166.071 53.04 167.247 53.32 168.287 53.88C169.327 54.44 170.135 55.216 170.711 56.208C171.303 57.2 171.599 58.328 171.599 59.592C171.599 60.856 171.303 61.992 170.711 63C170.135 63.992 169.327 64.768 168.287 65.328C167.247 65.888 166.071 66.168 164.759 66.168ZM164.759 63.6C165.863 63.6 166.775 63.232 167.495 62.496C168.215 61.76 168.575 60.792 168.575 59.592C168.575 58.392 168.215 57.424 167.495 56.688C166.775 55.952 165.863 55.584 164.759 55.584C163.655 55.584 162.743 55.952 162.023 56.688C161.319 57.424 160.967 58.392 160.967 59.592C160.967 60.792 161.319 61.76 162.023 62.496C162.743 63.232 163.655 63.6 164.759 63.6ZM183.851 59.328C185.435 59.808 186.227 60.832 186.227 62.4C186.227 63.552 185.795 64.44 184.931 65.064C184.067 65.688 182.787 66 181.091 66H174.563V53.184H180.827C182.395 53.184 183.619 53.472 184.499 54.048C185.379 54.624 185.819 55.44 185.819 56.496C185.819 57.152 185.643 57.72 185.291 58.2C184.955 58.68 184.475 59.056 183.851 59.328ZM177.419 58.536H180.563C182.115 58.536 182.891 58 182.891 56.928C182.891 55.888 182.115 55.368 180.563 55.368H177.419V58.536ZM180.851 63.816C182.499 63.816 183.323 63.28 183.323 62.208C183.323 61.648 183.131 61.232 182.747 60.96C182.363 60.672 181.763 60.528 180.947 60.528H177.419V63.816H180.851ZM194.198 53.04C196.086 53.04 197.526 53.496 198.518 54.408C199.526 55.304 200.03 56.664 200.03 58.488V66H197.198V64.44C196.83 65 196.302 65.432 195.614 65.736C194.942 66.024 194.126 66.168 193.166 66.168C192.206 66.168 191.366 66.008 190.646 65.688C189.926 65.352 189.366 64.896 188.966 64.32C188.582 63.728 188.39 63.064 188.39 62.328C188.39 61.176 188.814 60.256 189.662 59.568C190.526 58.864 191.878 58.512 193.718 58.512H197.03V58.32C197.03 57.424 196.758 56.736 196.214 56.256C195.686 55.776 194.894 55.536 193.838 55.536C193.118 55.536 192.406 55.648 191.702 55.872C191.014 56.096 190.43 56.408 189.95 56.808L188.774 54.624C189.446 54.112 190.254 53.72 191.198 53.448C192.142 53.176 193.142 53.04 194.198 53.04ZM193.79 63.984C194.542 63.984 195.206 63.816 195.782 63.48C196.374 63.128 196.79 62.632 197.03 61.992V60.504H193.934C192.206 60.504 191.342 61.072 191.342 62.208C191.342 62.752 191.558 63.184 191.99 63.504C192.422 63.824 193.022 63.984 193.79 63.984ZM213.895 55.728H209.407V66H206.407V55.728H201.895V53.184H213.895V55.728ZM222.503 57.408C224.135 57.408 225.383 57.776 226.247 58.512C227.127 59.248 227.567 60.288 227.567 61.632C227.567 63.04 227.087 64.128 226.127 64.896C225.167 65.664 223.815 66.04 222.071 66.024L216.071 66V53.184H219.071V57.384L222.503 57.408ZM221.807 63.816C222.687 63.832 223.359 63.648 223.823 63.264C224.287 62.88 224.519 62.32 224.519 61.584C224.519 60.864 224.295 60.336 223.847 60C223.399 59.664 222.719 59.488 221.807 59.472L219.071 59.448V63.792L221.807 63.816ZM236.836 53.184H239.836V61.632L246.916 53.184H249.652V66H246.652V57.552L239.596 66H236.836V53.184ZM253.688 53.184H256.688V58.392H263.144V53.184H266.144V66H263.144V60.936H256.688V66H253.688V53.184ZM270.164 53.184H273.164V61.632L280.244 53.184H282.98V66H279.98V57.552L272.924 66H270.164V53.184ZM301.08 63.456V68.952H298.272V66H287.016V53.184H290.016V63.456H296.136V53.184H299.136V63.456H301.08ZM303.75 53.184H306.75V61.632L313.83 53.184H316.566V66H313.566V57.552L306.51 66H303.75V53.184ZM325.378 53.04C327.266 53.04 328.706 53.496 329.698 54.408C330.706 55.304 331.21 56.664 331.21 58.488V66H328.378V64.44C328.01 65 327.482 65.432 326.794 65.736C326.122 66.024 325.306 66.168 324.346 66.168C323.386 66.168 322.546 66.008 321.826 65.688C321.106 65.352 320.546 64.896 320.146 64.32C319.762 63.728 319.57 63.064 319.57 62.328C319.57 61.176 319.994 60.256 320.842 59.568C321.706 58.864 323.058 58.512 324.898 58.512H328.21V58.32C328.21 57.424 327.938 56.736 327.394 56.256C326.866 55.776 326.074 55.536 325.018 55.536C324.298 55.536 323.586 55.648 322.882 55.872C322.194 56.096 321.61 56.408 321.13 56.808L319.954 54.624C320.626 54.112 321.434 53.72 322.378 53.448C323.322 53.176 324.322 53.04 325.378 53.04ZM324.97 63.984C325.722 63.984 326.386 63.816 326.962 63.48C327.554 63.128 327.97 62.632 328.21 61.992V60.504H325.114C323.386 60.504 322.522 61.072 322.522 62.208C322.522 62.752 322.738 63.184 323.17 63.504C323.602 63.824 324.202 63.984 324.97 63.984ZM345.074 55.728H340.586V66H337.586V55.728H333.074V53.184H345.074V55.728ZM347.25 53.184H350.25V61.632L357.33 53.184H360.066V66H357.066V57.552L350.01 66H347.25V53.184ZM373.39 59.328C374.974 59.808 375.766 60.832 375.766 62.4C375.766 63.552 375.334 64.44 374.47 65.064C373.606 65.688 372.326 66 370.63 66H364.102V53.184H370.366C371.934 53.184 373.158 53.472 374.038 54.048C374.918 54.624 375.358 55.44 375.358 56.496C375.358 57.152 375.182 57.72 374.83 58.2C374.494 58.68 374.014 59.056 373.39 59.328ZM366.958 58.536H370.102C371.654 58.536 372.43 58 372.43 56.928C372.43 55.888 371.654 55.368 370.102 55.368H366.958V58.536ZM370.39 63.816C372.038 63.816 372.862 63.28 372.862 62.208C372.862 61.648 372.67 61.232 372.286 60.96C371.902 60.672 371.302 60.528 370.486 60.528H366.958V63.816H370.39ZM391.057 53.184L385.057 67.032C384.497 68.424 383.817 69.4 383.017 69.96C382.217 70.536 381.249 70.824 380.113 70.824C379.473 70.824 378.841 70.72 378.217 70.512C377.593 70.304 377.081 70.016 376.681 69.648L377.881 67.44C378.169 67.712 378.505 67.928 378.889 68.088C379.289 68.248 379.689 68.328 380.089 68.328C380.617 68.328 381.049 68.192 381.385 67.92C381.737 67.648 382.057 67.192 382.345 66.552L382.561 66.048L376.969 53.184H380.089L384.121 62.664L388.177 53.184H391.057Z" fill="#672500"/>
<defs>
<filter id="filter0_d_189_289" x="0.587524" y="0" width="454.82" height="116" filterUnits="userSpaceOnUse" color-interpolation-filters="sRGB">
<feFlood flood-opacity="0" result="BackgroundImageFix"/>
<feColorMatrix in="SourceAlpha" type="matrix" values="0 0 0 0 0 0 0 0 0 0 0 0 0 0 0 0 0 0 127 0" result="hardAlpha"/>
<feOffset/>
<feGaussianBlur stdDeviation="10"/>
<feColorMatrix type="matrix" values="0 0 0 0 0.913725 0 0 0 0 0.721569 0 0 0 0 0.32549 0 0 0 0.5 0"/>
<feBlend mode="normal" in2="BackgroundImageFix" result="effect1_dropShadow_189_289"/>
<feBlend mode="normal" in="SourceGraphic" in2="effect1_dropShadow_189_289" result="shape"/>
</filter>
<linearGradient id="paint0_linear_189_289" x1="20" y1="58" x2="436" y2="58" gradientUnits="userSpaceOnUse">
<stop stop-color="#FCF565"/>
<stop offset="1" stop-color="#D5793F"/>
</linearGradient>
</defs>
</svg>
